<?xml version="1.0" standalone="no"?>
<!DOCTYPE svg PUBLIC "-//W3C//DTD SVG 20010904//EN"
 "http://www.w3.org/TR/2001/REC-SVG-20010904/DTD/svg10.dtd">
<svg version="1.0" xmlns="http://www.w3.org/2000/svg"
 width="6167.000000pt" height="938.000000pt" viewBox="0 0 6167.000000 938.000000"
 preserveAspectRatio="xMidYMid meet">

<g transform="translate(0.000000,938.000000) scale(0.100000,-0.100000)"
fill="#000000" stroke="none">
<path d="M0 4690 l0 -4690 30835 0 30835 0 0 4690 0 4690 -30835 0 -30835 0 0
-4690z m42050 2220 c640 -37 1072 -207 1324 -522 148 -184 230 -421 251 -725
l7 -93 -260 0 -260 0 -7 78 c-41 472 -326 700 -954 762 -141 14 -2362 13
-2542 0 -523 -41 -876 -161 -1025 -349 -156 -195 -241 -499 -274 -971 -13
-187 -13 -968 0 -1175 31 -495 117 -819 262 -988 106 -125 334 -222 638 -271
249 -40 294 -41 1625 -41 1197 0 1300 1 1425 18 269 37 474 107 598 206 142
113 225 296 247 544 l7 77 260 0 260 0 -7 -102 c-35 -518 -234 -854 -614
-1034 -242 -116 -542 -175 -989 -195 -300 -14 -2363 -6 -2542 10 -530 47 -890
145 -1140 310 -299 197 -465 592 -537 1270 -21 199 -30 1102 -14 1354 43 653
186 1095 439 1354 281 288 800 449 1557 482 260 12 2065 12 2265 1z m6646
-2406 c709 -1302 1291 -2370 1292 -2375 2 -6 -124 -8 -300 -7 l-303 3 -309
573 -310 572 -1770 -2 -1771 -3 -311 -570 -311 -570 -292 -3 -292 -2 48 88
c26 49 608 1117 1293 2375 l1245 2286 401 1 400 0 1290 -2366z m5724 2356
c532 -38 883 -165 1103 -400 122 -131 204 -296 248 -500 20 -92 23 -133 23
-340 0 -255 -12 -361 -61 -509 -57 -177 -157 -298 -307 -372 l-85 -42 87 -29
c107 -36 168 -70 257 -145 181 -152 298 -389 352 -711 16 -97 18 -183 18 -897
l0 -790 -277 -3 -278 -2 0 707 c0 390 -5 758 -10 818 -34 380 -175 557 -505
630 -224 49 -180 48 -2137 52 l-1848 4 -2 -1103 -3 -1103 -262 -3 -263 -2 0
2375 0 2375 1903 0 c1199 0 1956 -4 2047 -10z m6820 -235 l0 -245 -1955 0
-1955 0 0 -780 0 -780 1890 0 1890 0 0 -250 0 -250 -1890 0 -1890 0 0 -850 0
-850 1953 -2 1952 -3 0 -245 0 -245 -2212 -3 -2213 -2 0 2375 0 2375 2215 0
2215 0 0 -245z"/>
<path d="M46253 5137 l-742 -1372 749 -3 c413 -1 1086 -1 1498 0 l747 3 -746
1369 c-410 754 -750 1371 -755 1373 -5 1 -343 -615 -751 -1370z"/>
<path d="M51000 5600 l0 -741 1753 4 c1867 3 1793 1 1996 53 368 93 546 337
528 723 -9 197 -62 325 -187 452 -87 88 -172 139 -301 180 -207 67 -72 62
-2021 66 l-1768 4 0 -741z"/>
</g>
</svg>
