<?xml version="1.0" standalone="no"?>
<!DOCTYPE svg PUBLIC "-//W3C//DTD SVG 20010904//EN"
 "http://www.w3.org/TR/2001/REC-SVG-20010904/DTD/svg10.dtd">
<svg version="1.0" xmlns="http://www.w3.org/2000/svg"
 width="757.000000pt" height="600.000000pt" viewBox="0 0 757.000000 600.000000"
 preserveAspectRatio="xMidYMid meet">

<g transform="translate(0.000000,600.000000) scale(0.100000,-0.100000)"
fill="#000000" stroke="none">
<path d="M4207 5848 c-79 -81 -118 -126 -137 -160 -8 -15 -30 -43 -47 -62 -18
-20 -33 -38 -33 -42 0 -3 -13 -24 -28 -47 -76 -113 -92 -138 -92 -146 0 -5 -4
-11 -8 -13 -12 -5 -52 -77 -52 -94 0 -8 -4 -14 -10 -14 -5 0 -10 -4 -10 -10 0
-5 -17 -35 -37 -66 -21 -31 -42 -64 -48 -73 -5 -9 -20 -31 -32 -48 -13 -17
-23 -38 -23 -47 0 -9 -4 -16 -9 -16 -15 0 -79 -141 -86 -191 -7 -47 9 -79 21
-42 3 10 9 25 14 33 43 73 60 104 60 112 0 5 11 19 24 31 13 12 35 43 49 69
13 26 35 61 48 78 13 18 33 44 44 58 11 15 36 61 55 102 19 41 43 84 52 94 10
11 20 28 24 38 3 10 10 18 15 18 5 0 9 6 9 13 0 8 9 22 19 31 11 10 23 31 26
48 4 16 31 53 60 83 39 41 55 65 60 94 3 22 15 47 26 57 26 23 32 15 14 -20
-8 -16 -15 -39 -15 -51 0 -39 -61 -152 -120 -222 -5 -7 -10 -17 -10 -22 0 -10
-116 -239 -130 -256 -13 -17 -89 -165 -84 -165 3 0 -7 -17 -21 -37 -14 -21
-25 -41 -25 -44 0 -4 -20 -42 -45 -83 -25 -42 -51 -92 -59 -111 -8 -19 -19
-40 -25 -47 -56 -69 -60 -73 -70 -62 -8 7 -8 26 -2 57 10 53 2 59 -33 24 -47
-47 -43 -178 5 -190 17 -5 18 -8 7 -34 -7 -15 -15 -30 -18 -33 -3 -3 -10 -14
-16 -25 -6 -11 -16 -29 -22 -40 -18 -31 -82 -172 -82 -180 0 -8 -38 -91 -109
-240 -32 -66 -75 -156 -95 -200 -21 -44 -42 -87 -47 -95 -5 -8 -13 -26 -19
-40 -5 -14 -16 -38 -25 -53 -8 -16 -15 -35 -15 -43 0 -8 -5 -14 -11 -14 -5 0
-7 -4 -4 -10 3 -5 1 -10 -4 -10 -6 0 -11 -8 -11 -17 -1 -10 -14 -40 -30 -68
-17 -27 -37 -66 -46 -85 -39 -86 -77 -167 -89 -190 -13 -25 -91 -88 -110 -89
-5 -1 -23 -13 -40 -27 -16 -14 -42 -28 -57 -31 -15 -3 -29 -11 -32 -19 -3 -8
-12 -14 -21 -14 -8 0 -15 -4 -15 -10 0 -5 -8 -10 -19 -10 -10 0 -24 -7 -31
-15 -7 -8 -19 -15 -26 -15 -8 0 -14 -4 -14 -10 0 -5 -5 -10 -12 -10 -6 0 -26
-11 -44 -25 -18 -14 -37 -25 -43 -25 -6 0 -11 -4 -11 -8 0 -4 -17 -14 -37 -21
-20 -8 -46 -22 -57 -32 -11 -11 -26 -19 -33 -19 -7 0 -13 -4 -13 -9 0 -4 -27
-23 -60 -40 -33 -18 -60 -29 -60 -26 0 3 -10 -3 -22 -15 -12 -11 -27 -20 -34
-20 -7 0 -14 -4 -16 -8 -6 -16 -110 -82 -129 -82 -11 0 -22 -6 -25 -14 -3 -7
-29 -26 -57 -42 -29 -15 -58 -34 -65 -41 -7 -7 -24 -16 -38 -19 -13 -3 -24
-10 -24 -15 0 -5 -6 -9 -14 -9 -8 0 -16 -6 -19 -14 -3 -8 -38 -33 -79 -56 -74
-42 -158 -97 -191 -125 -9 -8 -20 -15 -23 -15 -4 0 -21 -12 -39 -27 -57 -48
-79 -65 -100 -73 -11 -4 -43 -28 -72 -54 -28 -25 -57 -46 -65 -46 -8 0 -25
-12 -39 -26 -13 -14 -41 -35 -62 -46 -22 -11 -58 -36 -80 -57 -23 -21 -64 -53
-92 -71 -45 -30 -131 -99 -175 -140 -46 -43 -81 -70 -88 -70 -23 0 -206 -183
-227 -226 -13 -28 -14 -37 -3 -50 34 -41 61 -62 89 -68 56 -11 149 -6 186 9
19 8 45 15 57 15 11 0 34 7 50 15 15 8 32 15 38 15 5 0 21 9 36 20 15 11 54
27 87 35 33 9 71 24 85 33 36 24 113 61 127 62 6 0 28 10 48 21 48 29 64 14
36 -31 -11 -19 -18 -37 -15 -41 2 -4 0 -10 -6 -14 -5 -3 -10 -19 -10 -36 0
-16 -4 -29 -10 -29 -5 0 -10 -12 -10 -26 0 -14 -9 -38 -19 -53 -11 -15 -23
-45 -27 -66 -4 -22 -13 -49 -20 -60 -7 -11 -16 -42 -19 -70 -4 -27 -12 -55
-17 -62 -12 -15 -49 -239 -51 -305 -1 -27 -5 -48 -8 -48 -4 0 -5 -19 -2 -42 5
-31 3 -39 -6 -33 -10 5 -9 2 0 -13 10 -15 10 -24 1 -34 -8 -11 -7 -17 9 -26
26 -17 24 -34 -12 -99 -31 -55 -31 -57 -15 -85 13 -21 15 -40 11 -72 -8 -52 7
-86 37 -86 20 0 89 68 170 168 18 22 49 59 68 82 19 23 53 68 75 100 118 169
282 383 370 484 17 19 88 117 140 191 27 39 54 75 60 81 43 47 336 500 419
647 16 29 32 54 35 57 4 3 22 29 40 57 28 46 38 53 65 53 17 0 42 9 56 20 14
11 28 20 32 20 4 0 17 4 30 9 13 5 25 8 28 7 3 0 17 7 31 16 15 9 42 20 62 23
20 4 41 13 47 20 16 19 156 85 179 85 11 0 22 4 26 9 3 5 19 12 35 16 17 4 30
11 30 16 0 5 9 9 19 9 11 0 23 5 26 10 3 6 17 10 30 10 13 0 25 4 27 8 3 9
105 52 122 52 6 0 33 11 60 25 27 14 57 25 67 25 10 0 21 5 24 10 3 6 15 10
26 10 10 0 27 4 37 9 33 18 87 40 115 46 15 4 29 11 32 15 3 5 31 16 61 25 31
9 73 25 93 36 19 10 48 19 62 19 15 0 29 7 33 15 3 8 14 15 25 15 11 0 22 4
25 9 4 5 24 12 45 16 22 3 47 15 57 26 10 11 30 19 51 19 18 0 33 5 33 10 0 6
8 10 17 10 24 0 83 23 83 32 0 4 11 8 25 8 13 0 28 7 33 16 8 14 13 14 32 4
14 -7 25 -8 29 -2 3 5 23 15 43 21 21 7 40 17 43 22 4 5 19 9 35 9 16 0 32 5
35 10 3 5 16 10 28 10 12 0 39 9 60 20 38 21 99 43 148 54 15 3 29 15 32 26 5
21 31 27 42 10 10 -16 28 -12 22 5 -9 21 14 31 25 11 5 -9 14 -13 21 -9 7 4
14 8 17 8 33 5 70 19 70 26 0 5 8 9 18 9 20 0 104 25 137 41 12 6 28 11 38 13
9 1 20 5 23 9 4 4 20 7 35 7 18 0 28 6 32 20 5 20 27 28 27 10 0 -25 96 13
103 42 6 22 27 24 27 3 0 -8 9 -15 21 -15 16 0 19 4 14 20 -4 12 -2 20 5 20 6
0 8 -4 5 -10 -8 -13 48 -13 60 -1 9 9 30 15 118 36 28 6 37 15 37 35 0 27 20
36 27 11 7 -26 9 -26 97 0 42 12 78 29 88 42 14 18 19 20 29 10 20 -20 29 -16
29 12 0 26 23 35 36 14 5 -8 10 -6 16 6 8 13 18 15 45 10 25 -4 42 -1 61 12
15 9 34 16 43 15 9 -2 19 4 22 12 4 10 16 13 46 9 27 -4 41 -2 41 6 0 6 3 10
8 9 12 -3 115 14 140 23 12 5 22 15 22 24 0 8 9 15 21 15 11 0 17 -4 14 -10
-11 -18 21 -11 38 8 12 13 26 17 46 14 16 -2 32 1 35 7 4 6 18 11 31 11 35 0
74 20 68 35 -3 10 5 12 35 8 29 -4 53 1 94 21 30 14 62 26 71 26 9 0 19 5 22
10 3 6 19 10 35 10 16 0 31 4 34 9 3 5 30 15 58 21 80 19 135 46 143 72 l7 23
6 -22 7 -22 45 30 c84 57 91 71 58 118 -19 27 -20 27 -88 -34 -31 -28 -146
-85 -171 -85 -6 0 -29 -9 -51 -20 -23 -11 -49 -20 -59 -20 -9 0 -30 -7 -45
-15 -16 -8 -43 -15 -60 -15 -18 0 -38 -8 -48 -19 -9 -10 -29 -21 -44 -24 -39
-7 -173 -46 -197 -57 -11 -6 -47 -17 -80 -26 -33 -9 -76 -20 -95 -25 -19 -6
-53 -15 -75 -20 -22 -6 -83 -23 -135 -40 -52 -16 -104 -29 -115 -29 -12 0 -25
-4 -31 -8 -11 -10 -133 -49 -184 -58 -19 -4 -39 -10 -45 -14 -5 -5 -36 -15
-67 -24 -32 -9 -84 -23 -115 -32 -32 -9 -65 -18 -73 -20 -8 -2 -69 -22 -135
-44 -66 -22 -130 -40 -142 -40 -13 0 -23 -4 -23 -10 0 -5 -8 -10 -18 -10 -10
0 -38 -6 -63 -14 -94 -29 -124 -37 -133 -36 -5 1 -12 -3 -15 -8 -3 -5 -46 -22
-96 -37 -49 -15 -99 -30 -110 -35 -50 -18 -95 -34 -165 -56 -41 -13 -89 -31
-108 -40 -18 -8 -50 -18 -70 -21 -20 -3 -44 -11 -52 -19 -8 -7 -32 -15 -52
-19 -21 -4 -38 -10 -38 -14 0 -4 -28 -16 -62 -26 -35 -10 -70 -22 -78 -27 -17
-9 -125 -50 -225 -84 -38 -14 -84 -33 -103 -44 -18 -11 -42 -20 -52 -20 -10 0
-20 -5 -22 -10 -2 -6 -14 -12 -28 -13 -14 -2 -41 -10 -60 -19 -19 -9 -71 -29
-115 -43 -44 -15 -100 -36 -124 -48 -24 -11 -51 -20 -60 -20 -9 0 -22 -6 -29
-14 -7 -7 -22 -13 -32 -13 -10 0 -22 -4 -25 -10 -3 -5 -15 -10 -26 -10 -10 0
-19 -4 -19 -10 0 -5 -11 -10 -25 -10 -14 0 -25 -4 -25 -9 0 -5 -9 -7 -20 -4
-11 3 -20 1 -20 -3 0 -5 -29 -18 -65 -29 -35 -10 -62 -21 -59 -24 5 -6 -64
-41 -80 -41 -6 0 -33 -11 -61 -25 -27 -13 -56 -25 -63 -25 -7 0 -24 -7 -37
-16 -14 -9 -25 -13 -25 -10 0 4 -10 -2 -21 -13 -12 -11 -51 -32 -88 -46 -36
-15 -74 -31 -84 -36 -21 -11 -35 14 -19 34 15 19 81 144 256 492 93 185 169
323 180 330 11 5 29 18 40 27 10 10 51 30 90 45 97 37 126 60 126 96 0 24 3
28 20 24 11 -3 20 -1 20 4 0 5 23 9 51 9 45 0 51 2 46 19 -3 14 0 17 13 14 18
-5 33 5 105 70 47 41 72 50 55 18 -5 -11 -10 -33 -10 -50 0 -17 -4 -31 -9 -31
-5 0 -16 -18 -25 -40 -9 -23 -22 -43 -30 -46 -17 -7 -32 -44 -44 -109 -5 -27
-20 -84 -32 -126 -21 -67 -21 -78 -9 -105 12 -25 20 -29 60 -32 45 -3 46 -2
116 72 39 40 74 83 78 95 3 12 11 21 16 21 6 0 8 4 4 10 -8 12 -35 1 -35 -15
0 -10 -25 -29 -126 -95 -13 -8 -26 -11 -30 -7 -4 4 7 55 24 115 18 59 32 115
32 125 0 9 5 17 10 17 6 0 10 8 10 18 0 10 3 21 6 25 4 3 17 39 31 78 31 93
68 172 90 192 10 8 44 29 76 45 31 16 63 34 70 40 6 5 25 12 41 16 17 4 42 16
57 27 15 10 32 19 38 19 5 0 14 7 19 16 5 9 33 25 62 35 30 10 56 22 59 27 3
4 25 13 47 20 23 7 45 19 48 27 3 8 14 15 25 15 11 0 23 5 26 10 3 6 15 10 25
10 10 0 33 15 51 32 19 20 34 28 36 21 5 -14 72 16 73 33 0 12 70 16 70 3 0
-5 -9 -35 -20 -66 -33 -94 -24 -221 19 -274 18 -22 19 -22 52 -6 40 18 45 27
116 167 68 136 93 168 93 120 0 -24 48 -130 59 -130 4 0 11 3 15 8 4 4 17 7
29 7 15 0 37 22 74 75 30 41 58 85 63 98 13 31 28 27 47 -13 13 -26 23 -35 38
-33 17 3 20 9 17 44 -2 22 4 76 13 119 15 72 15 79 0 94 -15 15 -18 14 -41
-14 -13 -16 -27 -39 -30 -50 -4 -11 -27 -43 -51 -72 -33 -38 -43 -57 -38 -72
5 -16 -1 -24 -27 -37 -18 -9 -40 -25 -49 -37 -28 -35 -39 -12 -39 87 0 107
-11 128 -56 108 -13 -7 -27 -20 -31 -29 -4 -10 -10 -20 -13 -23 -19 -14 -60
-122 -63 -165 -2 -29 -8 -50 -16 -53 -11 -4 -12 6 -7 44 l7 49 -20 -25 c-22
-27 -28 -75 -11 -85 16 -10 1 -25 -24 -25 -15 0 -27 -9 -34 -25 -12 -26 -26
-32 -36 -16 -7 11 20 134 34 159 5 9 19 46 30 81 20 66 43 101 65 101 7 0 15
7 19 15 3 8 14 15 23 15 10 0 29 7 41 16 12 8 22 12 22 9 0 -4 14 5 31 19 17
14 35 26 41 26 6 0 20 8 31 18 11 9 17 11 13 5 -4 -7 -2 -13 3 -13 6 0 11 4
11 8 0 4 31 22 69 40 38 18 75 39 81 47 7 8 18 15 25 15 7 0 18 7 25 15 7 8
23 15 35 15 12 0 28 7 35 15 7 9 19 14 27 11 8 -3 16 1 19 9 3 7 20 17 37 21
18 4 39 15 48 25 9 11 22 19 28 19 6 0 35 14 64 30 30 17 61 30 70 30 8 0 29
12 46 26 17 14 37 24 45 21 7 -3 23 -26 36 -51 23 -48 58 -66 46 -23 -4 12 -9
43 -13 68 -5 43 -4 47 18 54 13 5 35 15 48 24 14 9 29 16 35 17 25 3 56 17 56
25 0 5 7 9 15 9 8 0 15 5 15 10 0 6 7 10 15 10 8 0 15 5 15 11 0 5 5 7 10 4 6
-4 18 -1 27 7 9 7 19 12 22 12 8 -2 127 52 161 72 45 27 149 74 164 74 8 0 18
5 21 10 3 6 15 10 26 10 10 0 19 5 19 10 0 6 6 10 14 10 7 0 19 7 26 15 7 9
21 13 31 10 15 -5 166 57 179 73 3 4 12 8 20 10 39 6 128 38 152 55 27 18 27
18 34 -8 6 -24 -14 -138 -38 -215 -12 -40 -55 -92 -107 -132 -44 -34 -97 -37
-134 -8 -49 39 -75 28 -171 -70 -49 -49 -92 -90 -97 -90 -4 0 -11 17 -15 38
-7 40 -33 72 -59 72 -27 0 -71 -27 -101 -63 -51 -60 -59 -71 -76 -107 -31 -65
-38 -92 -53 -191 -14 -95 -14 -99 6 -134 15 -25 28 -35 46 -35 24 0 25 2 18
38 -3 20 -13 42 -21 48 -20 15 -18 23 11 50 18 17 24 30 20 46 -10 40 48 198
72 198 7 0 13 6 13 14 0 16 50 76 63 76 5 0 4 -7 -3 -15 -6 -8 -9 -22 -6 -32
3 -10 6 -21 7 -25 6 -43 29 -94 44 -96 11 -3 55 35 128 108 l111 112 42 -21
c43 -22 118 -28 129 -11 3 5 11 7 18 4 16 -6 114 80 133 117 33 65 76 198 84
262 7 62 6 72 -11 90 -10 11 -19 24 -19 29 0 4 -24 8 -52 8 -59 0 -140 -33
-172 -69 -21 -23 -51 -29 -43 -8 3 8 -12 5 -41 -10 -25 -13 -51 -23 -59 -23
-7 0 -13 -4 -13 -10 0 -5 -7 -10 -15 -10 -8 0 -37 -9 -63 -21 -93 -41 -108
-46 -139 -53 -17 -4 -37 -14 -44 -22 -6 -8 -20 -14 -30 -14 -11 0 -19 -3 -19
-7 0 -5 -19 -17 -43 -28 -23 -11 -44 -22 -47 -25 -3 -3 -30 -16 -60 -29 -87
-36 -165 -75 -168 -83 -2 -4 -10 -8 -18 -8 -8 0 -14 -4 -14 -10 0 -5 -6 -10
-14 -10 -8 0 -40 -13 -71 -30 -31 -16 -62 -30 -69 -30 -16 0 -35 26 -75 101
-19 35 -59 102 -90 147 -31 46 -65 100 -77 120 -11 21 -51 84 -88 142 -37 57
-68 114 -71 125 -2 11 -9 48 -16 82 -11 58 -10 68 11 125 25 70 83 139 134
159 17 7 39 22 49 33 15 19 19 19 30 5 13 -17 87 -15 87 2 0 5 -5 9 -11 9 -5
0 -7 5 -4 10 10 17 33 11 40 -9 3 -12 19 -22 38 -27 55 -12 131 -50 155 -78
12 -15 25 -41 29 -59 3 -18 11 -37 18 -42 18 -15 35 -81 36 -145 2 -73 11
-112 27 -118 22 -7 13 232 -10 277 -10 19 -18 42 -18 51 0 10 -7 23 -15 30 -8
7 -15 18 -15 24 0 35 -101 107 -189 135 -45 14 -165 14 -210 0 -83 -27 -127
-56 -192 -123 -53 -57 -74 -129 -66 -233 8 -119 48 -224 120 -315 17 -21 44
-59 61 -87 17 -27 49 -75 71 -107 22 -31 45 -64 50 -73 17 -25 23 -34 75 -104
33 -43 49 -74 46 -85 -3 -9 -34 -30 -68 -47 -35 -16 -64 -33 -66 -37 -2 -4
-19 -12 -38 -18 -19 -6 -34 -16 -34 -21 0 -5 -7 -9 -16 -9 -14 0 -111 -47
-124 -60 -3 -3 -36 -21 -75 -40 -38 -18 -75 -41 -82 -49 -6 -9 -14 -13 -18 -9
-4 4 -25 -4 -46 -18 -21 -13 -43 -24 -49 -24 -5 0 -10 -4 -10 -10 0 -5 -9 -10
-19 -10 -11 0 -22 -4 -25 -9 -3 -5 -32 -21 -63 -35 -32 -15 -65 -31 -73 -36
-50 -30 -116 -60 -132 -60 -10 0 -24 -11 -33 -23 -8 -13 -34 -30 -58 -38 -23
-7 -44 -16 -47 -20 -8 -10 -79 -49 -91 -49 -5 0 -27 -11 -49 -25 -22 -14 -40
-23 -40 -21 0 2 -20 -6 -46 -20 -25 -13 -51 -24 -58 -24 -7 0 -21 -9 -30 -19
-10 -11 -31 -23 -46 -26 -16 -3 -31 -12 -33 -19 -3 -7 -24 -16 -47 -20 -22 -3
-43 -13 -46 -21 -4 -8 -17 -15 -30 -15 -13 0 -24 -4 -24 -9 0 -8 -96 -52 -105
-48 -3 1 -12 -8 -20 -20 -9 -13 -23 -23 -32 -23 -9 0 -27 -9 -39 -21 -21 -20
-24 -20 -46 -5 -12 9 -28 16 -34 16 -7 0 -40 -29 -75 -65 -35 -36 -73 -66 -85
-68 -11 -1 -39 -17 -61 -35 -23 -18 -48 -32 -56 -32 -9 0 -19 -4 -22 -10 -3
-5 -15 -10 -25 -10 -10 0 -25 -6 -32 -13 -7 -7 -21 -16 -30 -20 -10 -3 -18
-11 -18 -16 0 -5 -10 -11 -23 -15 -13 -3 -36 -17 -53 -31 -16 -14 -37 -25 -47
-25 -10 0 -27 -5 -38 -10 -27 -15 -25 -5 27 101 25 51 50 105 56 119 5 14 25
55 44 93 19 37 34 73 34 81 0 7 9 21 20 31 11 10 20 22 20 26 0 5 14 38 30 75
52 113 130 278 140 296 6 10 10 25 10 33 0 8 5 15 10 15 6 0 10 6 10 13 0 8
13 40 29 73 16 32 35 74 42 92 8 17 17 32 21 32 5 0 8 6 8 13 0 6 14 39 30 72
17 33 30 65 30 72 0 7 5 13 10 13 6 0 10 12 10 26 0 14 11 40 25 58 14 18 25
38 25 43 0 17 83 173 118 226 18 25 32 49 32 53 0 9 44 108 70 156 25 46 26
70 3 61 -11 -4 -14 -3 -9 6 4 6 16 9 26 6 16 -5 26 7 54 62 33 65 88 164 127
228 10 17 29 50 42 75 13 25 33 61 44 80 10 19 27 55 37 79 15 40 16 45 2 53
-18 10 -21 43 -6 53 6 3 10 16 10 28 1 12 14 38 30 57 25 28 30 31 30 15 0
-11 -9 -33 -20 -50 -11 -16 -20 -36 -20 -42 0 -25 21 -12 37 22 9 19 20 35 23
35 15 0 43 113 33 129 -22 35 -51 24 -116 -41z m-147 -482 c0 -3 -4 -8 -10
-11 -5 -3 -10 -1 -10 4 0 6 5 11 10 11 6 0 10 -2 10 -4z m2677 -548 c-3 -8 -6
-5 -6 6 -1 11 2 17 5 13 3 -3 4 -12 1 -19z m508 -1028 c3 -5 1 -10 -4 -10 -6
0 -11 5 -11 10 0 6 2 10 4 10 3 0 8 -4 11 -10z m-36 -41 c-16 -10 -23 -4 -14
10 3 6 11 8 17 5 6 -4 5 -9 -3 -15z m-339 -119 c0 -5 -5 -10 -11 -10 -5 0 -7
5 -4 10 3 6 8 10 11 10 2 0 4 -4 4 -10z m-4050 -667 c0 -5 -14 -35 -30 -68
-16 -33 -30 -67 -30 -76 0 -8 -13 -35 -28 -60 -16 -24 -39 -71 -52 -104 -13
-33 -29 -67 -36 -75 -6 -8 -28 -46 -49 -85 -21 -38 -46 -82 -56 -97 -11 -14
-19 -29 -19 -34 0 -12 -51 -118 -65 -134 -7 -8 -27 -43 -45 -78 -26 -51 -37
-64 -61 -69 -16 -3 -29 -9 -29 -13 0 -4 -18 -12 -40 -19 -22 -6 -40 -17 -40
-22 0 -6 -7 -9 -15 -6 -8 4 -17 2 -21 -4 -3 -6 -11 -8 -17 -6 -7 2 -25 -7 -40
-19 -16 -13 -37 -24 -47 -24 -11 0 -23 -6 -27 -13 -10 -17 -130 -77 -155 -77
-10 0 -18 -4 -18 -8 0 -5 -19 -15 -42 -22 -24 -8 -64 -24 -90 -37 -26 -13 -54
-23 -63 -23 -8 0 -15 -5 -15 -11 0 -5 -4 -7 -10 -4 -5 3 -10 2 -10 -3 0 -6
-12 -13 -27 -16 -42 -11 -83 -30 -83 -40 0 -4 -7 -5 -16 -2 -8 3 -12 2 -9 -4
3 -6 -3 -11 -14 -11 -37 -2 -40 -4 -53 -22 -14 -18 -48 -15 -48 5 0 14 68 139
86 159 8 8 14 20 14 25 0 6 8 19 18 30 10 10 36 46 58 78 74 112 82 122 119
155 20 18 55 53 78 79 22 26 64 64 95 85 51 36 61 39 145 44 71 5 92 3 101 -8
6 -8 16 -14 21 -14 31 -1 95 -18 95 -25 0 -4 22 -13 50 -20 47 -11 70 -8 70
10 0 10 -58 45 -91 55 -13 4 -46 18 -73 31 -28 13 -58 24 -67 24 -10 0 -24 6
-31 13 -13 13 -94 16 -133 5 -32 -10 -100 -40 -105 -47 -3 -3 -24 -19 -48 -35
-24 -17 -78 -69 -120 -116 -81 -91 -95 -110 -152 -195 -89 -132 -116 -170
-122 -173 -5 -2 -8 -11 -8 -19 0 -9 -13 -37 -28 -62 -15 -25 -38 -67 -50 -93
-19 -42 -66 -88 -90 -88 -5 0 -15 -6 -22 -14 -6 -8 -18 -12 -26 -9 -7 3 -17
-2 -20 -11 -3 -9 -14 -16 -24 -16 -11 0 -22 -5 -25 -10 -4 -6 -11 -8 -16 -5
-5 4 -9 1 -9 -4 0 -6 -9 -11 -20 -11 -11 0 -20 -4 -20 -10 0 -5 -6 -10 -14
-10 -7 0 -19 -7 -26 -15 -7 -8 -21 -15 -31 -15 -11 0 -19 -4 -19 -10 0 -5 -7
-7 -15 -4 -8 4 -21 2 -28 -4 -6 -6 -15 -10 -19 -9 -4 1 -17 -6 -28 -15 -11
-10 -28 -18 -39 -18 -10 0 -26 -9 -36 -20 -19 -20 -41 -28 -30 -10 3 6 2 10
-4 10 -5 0 -11 -5 -13 -10 -2 -6 -13 -12 -25 -13 -12 0 -19 -5 -17 -9 3 -4 -2
-8 -10 -8 -9 0 -16 -6 -16 -12 0 -14 -45 -38 -70 -38 -9 0 -26 9 -38 20 -12
11 -34 20 -51 20 -40 0 -61 9 -61 27 0 15 148 162 163 163 4 0 39 28 76 63 86
78 156 138 185 157 13 8 50 35 84 60 181 131 222 160 232 160 5 0 10 4 10 9 0
4 28 28 61 52 34 24 85 62 113 84 28 22 71 54 96 70 25 17 47 32 50 35 8 8 42
28 79 46 18 10 43 27 56 38 12 12 65 48 119 81 53 33 118 75 144 92 26 18 61
39 78 47 17 8 36 22 44 30 7 9 16 16 21 16 4 0 28 14 52 30 25 17 50 30 56 30
6 0 11 4 11 10 0 5 17 17 38 26 20 10 41 24 45 31 4 7 17 13 27 13 11 0 20 4
20 9 0 4 20 19 45 32 25 13 45 27 45 31 0 5 6 8 14 8 7 0 19 7 26 15 7 8 21
15 31 15 11 0 19 5 19 10 0 6 5 10 11 10 6 0 23 8 37 19 15 10 38 22 51 26 13
4 33 15 45 26 24 21 125 75 144 78 6 0 12 -2 12 -6z m-530 -1000 c0 -15 -25
-73 -31 -73 -4 0 -22 -24 -40 -52 -49 -77 -55 -88 -82 -143 -14 -28 -35 -59
-46 -69 -11 -10 -38 -48 -60 -85 -22 -36 -52 -79 -67 -94 -15 -16 -42 -54 -60
-85 -51 -87 -124 -188 -180 -250 -27 -32 -68 -82 -89 -112 -22 -30 -42 -57
-45 -60 -3 -3 -17 -21 -30 -40 -13 -19 -27 -37 -30 -40 -3 -3 -9 -12 -15 -21
-19 -32 -96 -130 -140 -179 -25 -28 -54 -69 -65 -91 -12 -22 -44 -67 -73 -99
-29 -32 -72 -84 -97 -114 -52 -66 -69 -71 -71 -18 -1 20 -3 57 -4 81 -2 24 1
54 5 67 5 13 12 83 16 156 3 73 13 162 21 198 8 36 16 79 18 97 5 47 18 89 45
143 4 9 11 31 15 50 4 19 13 49 19 65 24 57 38 100 43 128 3 15 9 27 14 27 5
0 9 8 9 18 0 10 18 54 40 97 l39 80 138 66 c190 91 277 129 295 129 9 0 21 7
28 16 17 19 88 54 112 54 10 0 21 7 24 15 4 8 12 15 20 15 8 0 22 4 32 9 32
18 108 51 116 51 4 0 35 13 69 29 91 42 107 47 107 34z"/>
<path d="M6890 5079 c0 -5 5 -7 10 -4 6 3 10 8 10 11 0 2 -4 4 -10 4 -5 0 -10
-5 -10 -11z"/>
<path d="M5634 4279 c-2 -4 -2 -20 2 -35 l7 -27 19 22 c10 13 18 20 18 16 0
-4 7 -2 15 5 8 7 13 16 10 20 -7 11 -64 10 -71 -1z"/>
<path d="M5430 4250 c0 -6 -8 -10 -17 -8 -10 2 -22 -8 -31 -27 -9 -16 -19 -37
-24 -45 -55 -99 -98 -188 -98 -202 1 -7 9 -23 19 -35 20 -24 67 -31 99 -14 9
5 24 12 32 16 50 20 100 61 100 82 0 20 -37 15 -86 -12 -51 -28 -74 -32 -74
-10 0 8 25 67 56 130 30 63 52 120 49 125 -8 13 -25 13 -25 0z"/>
<path d="M5636 4198 c-61 -53 -62 -238 -1 -214 8 3 14 16 14 28 0 13 9 57 21
98 12 41 22 82 23 90 3 24 -29 23 -57 -2z"/>
<path d="M3943 3921 c-30 -25 -29 -43 7 -81 17 -18 30 -38 30 -45 0 -22 28
-26 35 -4 4 10 13 19 21 19 22 0 9 56 -23 98 -28 37 -39 39 -70 13z m52 -51
c3 -5 1 -10 -4 -10 -6 0 -11 5 -11 10 0 6 2 10 4 10 3 0 8 -4 11 -10z"/>
<path d="M4015 3740 c-3 -5 -1 -10 4 -10 6 0 11 5 11 10 0 6 -2 10 -4 10 -3 0
-8 -4 -11 -10z"/>
<path d="M3923 3563 c-33 -22 -28 -37 17 -57 46 -20 68 -18 84 6 14 23 5 30
-39 30 -31 0 -36 3 -32 19 6 23 0 23 -30 2z"/>
</g>
</svg>
